<svg width="154" height="28" viewBox="0 0 154 28" fill="none" xmlns="http://www.w3.org/2000/svg">
<path d="M44.2 11.2C45.3333 11.2 46.2333 11.4933 46.9 12.08C47.5667 12.6533 48 13.3733 48.2 14.24L46.6 14.38C46.4267 13.82 46.1467 13.3867 45.76 13.08C45.3733 12.76 44.9467 12.6 44.48 12.6C43.6267 12.6 42.9333 12.92 42.4 13.56C41.88 14.2 41.62 15.0733 41.62 16.18C41.62 17.2733 41.8733 18.1533 42.38 18.82C42.9 19.4867 43.54 19.82 44.3 19.82C45.0733 19.82 45.6467 19.6467 46.02 19.3C46.4067 18.94 46.6 18.4333 46.6 17.78H48.22C48.22 18.8067 47.86 19.64 47.14 20.28C46.4333 20.9067 45.5067 21.22 44.36 21.22C43.1467 21.22 42.1133 20.76 41.26 19.84C40.42 18.92 40 17.7 40 16.18C40 14.6467 40.42 13.4333 41.26 12.54C42.1 11.6467 43.08 11.2 44.2 11.2ZM57.813 19.1C57.1596 20.4867 56.0996 21.18 54.633 21.18C53.553 21.18 52.6796 20.88 52.013 20.28C51.3596 19.68 51.033 18.7533 51.033 17.5V11.42H52.613V17.38C52.613 18.9933 53.3596 19.8 54.853 19.8C55.7196 19.8 56.4196 19.4667 56.953 18.8C57.4996 18.1333 57.7863 17.28 57.813 16.24V11.42H59.393V21H57.813V19.1ZM63.4419 7.38H65.0219V21H63.4419V7.38ZM74.0473 20.72C72.9007 21.2533 71.854 21.3667 70.9073 21.06C70.2273 20.8467 69.7473 20.4 69.4673 19.72C69.3207 19.3867 69.2473 18.9867 69.2473 18.52V12.64H67.7073V11.44H69.2473V8.78H70.8073V11.44H73.8073V12.64H70.8073V18.5C70.8073 19.4733 71.2607 19.96 72.1673 19.96C72.6607 19.96 73.214 19.84 73.8273 19.6L74.0473 20.72ZM83.0669 19.1C82.4135 20.4867 81.3535 21.18 79.8869 21.18C78.8069 21.18 77.9335 20.88 77.2669 20.28C76.6135 19.68 76.2869 18.7533 76.2869 17.5V11.42H77.8669V17.38C77.8669 18.9933 78.6135 19.8 80.1069 19.8C80.9735 19.8 81.6735 19.4667 82.2069 18.8C82.7535 18.1333 83.0402 17.28 83.0669 16.24V11.42H84.6469V21H83.0669V19.1ZM92.5958 12.78C91.0891 12.78 90.3091 13.9667 90.2558 16.34V21H88.6758V11.42H90.2558V13.26C90.7358 11.9267 91.5824 11.26 92.7958 11.26C93.1824 11.26 93.5491 11.32 93.8958 11.44L93.8158 12.98C93.4158 12.8467 93.0091 12.78 92.5958 12.78ZM99.613 19.94C100.933 19.94 101.686 19.36 101.873 18.2H103.493C103.346 19.16 102.92 19.9067 102.213 20.44C101.52 20.96 100.653 21.22 99.613 21.22C98.333 21.22 97.293 20.7667 96.493 19.86C95.693 18.94 95.293 17.72 95.293 16.2C95.293 14.68 95.693 13.4667 96.493 12.56C97.3063 11.6533 98.3796 11.2 99.713 11.2C101.06 11.2 102.06 11.72 102.713 12.76C103.38 13.8 103.613 15.0667 103.413 16.56H96.873C96.873 17.5467 97.113 18.36 97.593 19C98.073 19.6267 98.7463 19.94 99.613 19.94ZM100.773 12.7C100.466 12.54 100.093 12.46 99.653 12.46C98.8396 12.46 98.193 12.74 97.713 13.3C97.2463 13.8467 96.973 14.5333 96.893 15.36H101.993C101.993 14.0267 101.586 13.14 100.773 12.7ZM112.866 12.86V7.38H114.426V21H113.146L112.946 19.4C112.639 20 112.233 20.4533 111.726 20.76C111.219 21.0667 110.666 21.22 110.066 21.22C108.853 21.22 107.833 20.7533 107.006 19.82C106.193 18.8867 105.786 17.6733 105.786 16.18C105.786 14.6733 106.186 13.4667 106.986 12.56C107.799 11.6533 108.819 11.2 110.046 11.2C111.286 11.2 112.226 11.7533 112.866 12.86ZM110.146 12.6C109.373 12.6 108.719 12.9267 108.186 13.58C107.666 14.2333 107.406 15.1067 107.406 16.2C107.406 17.2933 107.673 18.1733 108.206 18.84C108.739 19.4933 109.379 19.82 110.126 19.82C110.873 19.82 111.506 19.5733 112.026 19.08C112.559 18.5733 112.839 17.9 112.866 17.06V15.5C112.866 14.6067 112.606 13.9 112.086 13.38C111.566 12.86 110.919 12.6 110.146 12.6ZM126.107 15.94L124.827 16.98V21H123.247V7.38H124.827V15.3L129.447 11.44H131.647L127.247 15.02L131.867 21H129.927L126.107 15.94ZM134.636 11.42H136.216V21H134.636V11.42ZM135.416 9.18C135.096 9.18 134.842 9.09333 134.656 8.92C134.482 8.73333 134.396 8.49333 134.396 8.2C134.396 7.89333 134.482 7.65333 134.656 7.48C134.842 7.29333 135.096 7.2 135.416 7.2C135.736 7.2 135.989 7.29333 136.176 7.48C136.376 7.65333 136.476 7.89333 136.476 8.2C136.476 8.49333 136.376 8.73333 136.176 8.92C135.989 9.09333 135.736 9.18 135.416 9.18ZM146.772 12.86V7.38H148.332V21H147.052L146.852 19.4C146.546 20 146.139 20.4533 145.632 20.76C145.126 21.0667 144.572 21.22 143.972 21.22C142.759 21.22 141.739 20.7533 140.912 19.82C140.099 18.8867 139.692 17.6733 139.692 16.18C139.692 14.6733 140.092 13.4667 140.892 12.56C141.706 11.6533 142.726 11.2 143.952 11.2C145.192 11.2 146.132 11.7533 146.772 12.86ZM144.052 12.6C143.279 12.6 142.626 12.9267 142.092 13.58C141.572 14.2333 141.312 15.1067 141.312 16.2C141.312 17.2933 141.579 18.1733 142.112 18.84C142.646 19.4933 143.286 19.82 144.032 19.82C144.779 19.82 145.412 19.5733 145.932 19.08C146.466 18.5733 146.746 17.9 146.772 17.06V15.5C146.772 14.6067 146.512 13.9 145.992 13.38C145.472 12.86 144.826 12.6 144.052 12.6ZM152.127 21.18C151.794 21.18 151.514 21.0733 151.287 20.86C151.074 20.6333 150.967 20.3667 150.967 20.06C150.967 19.74 151.074 19.4733 151.287 19.26C151.514 19.0333 151.794 18.92 152.127 18.92C152.474 18.92 152.761 19.0333 152.987 19.26C153.214 19.4733 153.327 19.74 153.327 20.06C153.327 20.3667 153.214 20.6333 152.987 20.86C152.761 21.0733 152.474 21.18 152.127 21.18Z" fill="#161412"/>
<path fill-rule="evenodd" clip-rule="evenodd" d="M15 4H11V24H15V4ZM4.81936 9L0 16.0588H0.0102113L4.82957 23.7059H9L4.17043 16.0588L8.98979 9H4.81936ZM17 16.0588L21.8194 9H25.9898L21.1704 16.0588L26 23.7059H21.8296L17.0102 16.0588H17ZM31 23.5C32.1046 23.5 33 22.6046 33 21.5C33 20.3954 32.1046 19.5 31 19.5C29.8954 19.5 29 20.3954 29 21.5C29 22.6046 29.8954 23.5 31 23.5Z" fill="#161412"/>
</svg>
